<?xml version="1.0" standalone="no"?><!DOCTYPE svg PUBLIC "-//W3C//DTD SVG 1.1//EN" "http://www.w3.org/Graphics/SVG/1.1/DTD/svg11.dtd"><svg t="1512746515364" class="icon" style="" viewBox="0 0 1024 1024" version="1.1" xmlns="http://www.w3.org/2000/svg" p-id="2171" xmlns:xlink="http://www.w3.org/1999/xlink" width="200" height="200"><defs><style type="text/css"></style></defs><path d="M992 746.666667a32 32 0 0 1-32-32c0-3.797333 0.96-7.296 2.176-10.666667H960c0-117.824-95.509333-213.333333-213.333333-213.333333s-213.333333 95.509333-213.333334 213.333333 95.509333 213.333333 213.333334 213.333333v2.176c3.370667-1.216 6.869333-2.176 10.666666-2.176a32 32 0 0 1 0 64c-3.797333 0-7.296-0.96-10.666666-2.176V981.333333c-153.173333 0-277.333333-124.16-277.333334-277.333333s124.16-277.333333 277.333334-277.333333 277.333333 124.16 277.333333 277.333333h-2.176c1.216 3.370667 2.176 6.869333 2.176 10.666667a32 32 0 0 1-32 32zM960 170.666667H661.333333c-54.805333 0-102.08 29.930667-128 73.984v193.130666a341.141333 341.141333 0 0 0-42.666666 40.96V244.650667C464.746667 200.597333 417.472 170.666667 362.666667 170.666667H64v640h330.666667a32 32 0 0 1 0 64h-362.666667A32 32 0 0 1 0 842.666667v-704A32 32 0 0 1 32 106.666667h320c0.746667 0 1.386667 0.384 2.133333 0.426666 2.858667-0.106667 5.653333-0.426667 8.533334-0.426666a212.565333 212.565333 0 0 1 149.333333 61.098666A212.565333 212.565333 0 0 1 661.333333 106.666667c2.88 0 5.674667 0.32 8.533334 0.426666 0.746667-0.042667 1.386667-0.426667 2.133333-0.426666h320A32 32 0 0 1 1024 138.666667v366.848a342.378667 342.378667 0 0 0-64-67.733334V170.666667zM746.666667 725.333333a21.333333 21.333333 0 0 1-21.333334-21.333333v-128a21.333333 21.333333 0 1 1 42.666667 0v106.666667h85.333333a21.333333 21.333333 0 1 1 0 42.666666h-106.666666z m85.333333 128h64v-64a21.333333 21.333333 0 1 1 42.666667 0v64h64a21.333333 21.333333 0 1 1 0 42.666667h-64v64a21.333333 21.333333 0 1 1-42.666667 0v-64h-64a21.333333 21.333333 0 1 1 0-42.666667z" p-id="2172"></path></svg>