<?xml version="1.0" standalone="no"?><!DOCTYPE svg PUBLIC "-//W3C//DTD SVG 1.1//EN" "http://www.w3.org/Graphics/SVG/1.1/DTD/svg11.dtd"><svg t="1512746443142" class="icon" style="" viewBox="0 0 1024 1024" version="1.1" xmlns="http://www.w3.org/2000/svg" p-id="1555" xmlns:xlink="http://www.w3.org/1999/xlink" width="200" height="200"><defs><style type="text/css"></style></defs><path d="M192 64h736a32 32 0 0 0 0-64H192A128 128 0 0 0 64 128v768a128 128 0 0 0 128 128V192a64 64 0 0 1 0-128z" p-id="1556"></path><path d="M928 192H224v832h704a32 32 0 0 0 32-32V224a32 32 0 0 0-32-32zM824.96 692.08c-14.16 9.36-27.12 7.36-38.72-6a1313.04 1313.04 0 0 0-77.52-106 27.36 27.36 0 0 1 3.92-40c15.52-9.28 29.04-8 40.64 4a960.96 960.96 0 0 1 77.52 106 31.04 31.04 0 0 1-5.84 42zM534.4 448q-21.36-1.92-23.28-28A25.2 25.2 0 0 1 536 394.08h267.68c12.88 1.36 20 10 21.28 26q-1.92 26.08-21.28 28h-87.2a370.4 370.4 0 0 1-27.12 56v236a26 26 0 0 1-27.12 26c-18.08-1.28-27.76-10-29.04-26V598.08a541.84 541.84 0 0 1-72 82q-25.2 20.08-44.56 2-17.52-21.92 3.84-46A574.96 574.96 0 0 0 656.4 448z m-141.44-49.92Q410.4 376 432 388.08a546.56 546.56 0 0 1 60.08 42c14.16 13.36 16.8 27.36 8 42-10.4 14.72-23.28 16.72-38.8 6-15.44-12-35.52-26-60-42-14.8-9.28-17.28-22-8.32-38z m414.64 432H592.48a187.12 187.12 0 0 1-124-42c-5.12-5.28-9.04-8-11.6-8a77.52 77.52 0 0 0-15.52 18 223.04 223.04 0 0 0-13.52 17.92c-10.4 16-23.28 20-38.8 12q-21.36-16-5.76-36 29.04-43.92 46.48-74V602.08a5.2 5.2 0 0 0-5.84-6h-17.44a26 26 0 0 1 0-52h42.64q36.88-1.92 34.88 36v136q15.52 58.08 129.84 62H808q29.04 2.08 30.96 26c-1.68 16-12 24.72-30.96 26z" p-id="1557"></path></svg>